ply
format ascii 1.0
comment Created by Blender 2.71 (sub 0) - www.blender.org, source file: 'Axe.blend'
element vertex 140
property float x
property float y
property float z
property float nx
property float ny
property float nz
property float s
property float t
element face 92
property list uchar uint vertex_indices
end_header
0.002761 -1.025099 -8.933655 0.000000 0.727866 -0.685690 0.469786 -0.021630
0.002761 -1.025099 0.497136 0.000000 0.727866 0.685690 0.469786 0.978370
0.041389 -1.028904 0.497136 0.142003 0.713889 0.685690 0.542944 0.978370
0.041389 -1.028904 -8.933655 0.142003 0.713889 -0.685690 0.542944 -0.021630
0.078533 -1.040171 0.497136 0.278542 0.672475 0.685690 0.613292 0.978370
0.078533 -1.040171 -8.933655 0.278542 0.672475 -0.685690 0.613292 -0.021630
0.112764 -1.058468 0.497136 0.404370 0.605213 0.685690 0.678124 0.978370
0.112764 -1.058468 -8.933655 0.404370 0.605213 -0.685690 0.678124 -0.021630
0.142769 -1.083092 0.497136 0.514664 0.514664 0.685690 0.734951 0.978370
0.142769 -1.083092 -8.933655 0.514695 0.514664 -0.685690 0.734951 -0.021630
0.142769 -1.083092 -8.933655 0.514695 0.514664 -0.685690 0.275253 -0.021630
0.142769 -1.083092 0.497136 0.514664 0.514664 0.685690 0.275253 0.978370
0.167392 -1.113096 0.497136 0.605213 0.404370 0.685690 0.218427 0.978370
0.167392 -1.113096 -8.933655 0.605213 0.404370 -0.685690 0.218427 -0.021630
0.185690 -1.147328 0.497136 0.672475 0.278542 0.685690 0.153594 0.978370
0.185690 -1.147328 -8.933655 0.672475 0.278542 -0.685690 0.153594 -0.021630
0.196957 -1.184471 0.497136 0.713889 0.142003 0.685690 0.083247 0.978370
0.196957 -1.184471 -8.933655 0.713889 0.142003 -0.685690 0.083247 -0.021630
0.196957 -1.184471 -8.933655 0.713889 0.142003 -0.685690 0.833247 -0.021630
0.196957 -1.184471 0.497136 0.713889 0.142003 0.685690 0.833247 0.978370
0.200761 -1.223099 0.497136 0.727866 0.000000 0.685690 0.760088 0.978370
0.200761 -1.223099 -8.933655 0.727866 0.000000 -0.685690 0.760088 -0.021630
0.196957 -1.261727 0.497136 0.713889 -0.142003 0.685690 0.686929 0.978370
0.196957 -1.261727 -8.933655 0.713889 -0.142003 -0.685690 0.686929 -0.021630
0.185690 -1.298871 0.497136 0.672475 -0.278542 0.685690 0.616582 0.978370
0.185690 -1.298871 -8.933655 0.672475 -0.278542 -0.685690 0.616582 -0.021630
0.167392 -1.333102 0.497136 0.605213 -0.404370 0.685690 0.551749 0.978370
0.167392 -1.333102 -8.933655 0.605213 -0.404370 -0.685690 0.551749 -0.021630
0.142769 -1.363106 0.497136 0.514664 -0.514664 0.685690 0.494923 0.978370
0.142769 -1.363106 -8.933655 0.514695 -0.514664 -0.685690 0.494923 -0.021630
0.142769 -1.363106 -8.933655 0.514695 -0.514664 -0.685690 0.734951 -0.021630
0.142769 -1.363106 0.497136 0.514664 -0.514664 0.685690 0.734951 0.978370
0.112764 -1.387730 0.497136 0.404370 -0.605213 0.685690 0.678124 0.978370
0.112764 -1.387730 -8.933655 0.404370 -0.605213 -0.685690 0.678124 -0.021630
0.078533 -1.406027 0.497136 0.278542 -0.672475 0.685690 0.613292 0.978370
0.078533 -1.406027 -8.933655 0.278542 -0.672475 -0.685690 0.613292 -0.021630
0.041389 -1.417295 0.497136 0.142003 -0.713889 0.685690 0.542944 0.978370
0.041389 -1.417295 -8.933655 0.142003 -0.713889 -0.685690 0.542944 -0.021630
0.002761 -1.421099 0.497136 0.000000 -0.727866 0.685690 0.469785 0.978370
0.002761 -1.421099 -8.933655 0.000000 -0.727866 -0.685690 0.469785 -0.021630
-0.035867 -1.417295 0.497136 -0.142003 -0.713889 0.685690 0.396627 0.978370
-0.035867 -1.417295 -8.933655 -0.142003 -0.713889 -0.685690 0.396627 -0.021630
-0.073010 -1.406027 0.497136 -0.278542 -0.672475 0.685690 0.326279 0.978370
-0.073010 -1.406027 -8.933655 -0.278542 -0.672475 -0.685690 0.326279 -0.021630
-0.107242 -1.387730 0.497136 -0.404370 -0.605213 0.685690 0.261447 0.978370
-0.107242 -1.387730 -8.933655 -0.404370 -0.605213 -0.685690 0.261447 -0.021630
-0.137246 -1.363106 0.497136 -0.514664 -0.514664 0.685690 0.204620 0.978370
-0.137246 -1.363106 -8.933655 -0.514664 -0.514664 -0.685690 0.204620 -0.021630
-0.137246 -1.363106 -8.933655 -0.514664 -0.514664 -0.685690 0.494923 -0.021630
-0.137246 -1.363106 0.497136 -0.514664 -0.514664 0.685690 0.494923 0.978370
-0.161870 -1.333102 0.497136 -0.605213 -0.404370 0.685690 0.551749 0.978370
-0.161870 -1.333102 -8.933655 -0.605213 -0.404370 -0.685690 0.551749 -0.021630
-0.180167 -1.298870 0.497136 -0.672475 -0.278542 0.685690 0.616582 0.978370
-0.180167 -1.298870 -8.933655 -0.672475 -0.278542 -0.685690 0.616582 -0.021630
-0.191434 -1.261727 0.497136 -0.713889 -0.142003 0.685690 0.686929 0.978370
-0.191434 -1.261727 -8.933655 -0.713889 -0.142003 -0.685690 0.686929 -0.021630
-0.195239 -1.223099 0.497136 -0.727866 0.000000 0.685690 0.760088 0.978370
-0.195239 -1.223099 -8.933655 -0.727866 0.000000 -0.685690 0.760088 -0.021630
-0.191434 -1.184471 0.497136 -0.713889 0.142003 0.685690 0.833247 0.978370
-0.191434 -1.184471 -8.933655 -0.713889 0.142003 -0.685690 0.833247 -0.021630
-0.180167 -1.147328 0.497136 -0.672475 0.278542 0.685690 0.903594 0.978370
-0.180167 -1.147328 -8.933655 -0.672475 0.278542 -0.685690 0.903594 -0.021630
-0.180167 -1.147328 -8.933655 -0.672475 0.278542 -0.685690 0.153594 -0.021630
-0.180167 -1.147328 0.497136 -0.672475 0.278542 0.685690 0.153594 0.978370
-0.161869 -1.113096 0.497136 -0.605213 0.404370 0.685690 0.218427 0.978370
-0.161869 -1.113096 -8.933655 -0.605213 0.404370 -0.685690 0.218427 -0.021630
-0.137246 -1.083092 0.497136 -0.514664 0.514695 0.685690 0.275253 0.978370
-0.137246 -1.083092 -8.933655 -0.514664 0.514695 -0.685690 0.275253 -0.021630
-0.137246 -1.083092 -8.933655 -0.514664 0.514695 -0.685690 0.204621 -0.021630
-0.137246 -1.083092 0.497136 -0.514664 0.514695 0.685690 0.204621 0.978370
-0.107241 -1.058468 0.497136 -0.404370 0.605213 0.685690 0.261447 0.978370
-0.107241 -1.058468 -8.933655 -0.404370 0.605213 -0.685690 0.261447 -0.021630
-0.073010 -1.040171 0.497136 -0.278542 0.672475 0.685690 0.326280 0.978370
-0.073010 -1.040171 -8.933655 -0.278542 0.672475 -0.685690 0.326280 -0.021630
0.041389 -1.028904 0.497136 0.142003 0.713889 0.685690 0.542944 -0.533657
0.002761 -1.025099 0.497136 0.000000 0.727866 0.685690 0.469786 -0.524050
0.078533 -1.040171 0.497136 0.278542 0.672475 0.685690 0.613292 -0.562110
-0.035866 -1.028904 0.497136 -0.141972 0.713889 0.685690 0.396627 -0.533657
-0.073010 -1.040171 0.497136 -0.278542 0.672475 0.685690 0.326280 -0.562110
-0.107241 -1.058468 0.497136 -0.404370 0.605213 0.685690 0.261447 -0.608315
-0.137246 -1.083092 0.497136 -0.514664 0.514695 0.685690 0.204621 -0.670496
-0.161869 -1.113096 0.497136 -0.605213 0.404370 0.685690 0.157985 -0.746264
-0.180167 -1.147328 0.497136 -0.672475 0.278542 0.685690 0.123331 -0.832708
-0.191434 -1.184471 0.497136 -0.713889 0.142003 0.685690 0.101991 -0.926504
-0.195239 -1.223099 0.497136 -0.727866 0.000000 0.685690 0.094786 -1.024049
-0.191434 -1.261727 0.497136 -0.713889 -0.142003 0.685690 0.101991 -1.121594
-0.180167 -1.298870 0.497136 -0.672475 -0.278542 0.685690 0.123331 -1.215391
-0.161870 -1.333102 0.497136 -0.605213 -0.404370 0.685690 0.157984 -1.301835
-0.137246 -1.363106 0.497136 -0.514664 -0.514664 0.685690 0.204620 -1.377603
-0.107242 -1.387730 0.497136 -0.404370 -0.605213 0.685690 0.261447 -1.439784
-0.073010 -1.406027 0.497136 -0.278542 -0.672475 0.685690 0.326279 -1.485989
-0.035867 -1.417295 0.497136 -0.142003 -0.713889 0.685690 0.396627 -1.514442
0.002761 -1.421099 0.497136 0.000000 -0.727866 0.685690 0.469785 -1.524050
0.041389 -1.417295 0.497136 0.142003 -0.713889 0.685690 0.542944 -1.514442
0.078533 -1.406027 0.497136 0.278542 -0.672475 0.685690 0.613292 -1.485990
0.112764 -1.387730 0.497136 0.404370 -0.605213 0.685690 0.678124 -1.439785
0.142769 -1.363106 0.497136 0.514664 -0.514664 0.685690 0.734951 -1.377603
0.167392 -1.333102 0.497136 0.605213 -0.404370 0.685690 0.781587 -1.301835
0.185690 -1.298871 0.497136 0.672475 -0.278542 0.685690 0.816240 -1.215391
0.196957 -1.261727 0.497136 0.713889 -0.142003 0.685690 0.837580 -1.121595
0.200761 -1.223099 0.497136 0.727866 0.000000 0.685690 0.844786 -1.024050
0.196957 -1.184471 0.497136 0.713889 0.142003 0.685690 0.837580 -0.926505
0.185690 -1.147328 0.497136 0.672475 0.278542 0.685690 0.816240 -0.832708
0.167392 -1.113096 0.497136 0.605213 0.404370 0.685690 0.781587 -0.746265
0.142769 -1.083092 0.497136 0.514664 0.514664 0.685690 0.734951 -0.670496
0.112764 -1.058468 0.497136 0.404370 0.605213 0.685690 0.678124 -0.608315
-0.035866 -1.028904 -8.933655 -0.141972 0.713889 -0.685690 0.396627 -0.021630
-0.035866 -1.028904 0.497136 -0.141972 0.713889 0.685690 0.396627 0.978370
0.002761 -1.025099 -8.933655 0.000000 0.727866 -0.685690 0.469786 -0.524050
0.041389 -1.028904 -8.933655 0.142003 0.713889 -0.685690 0.542944 -0.533657
-0.035866 -1.028904 -8.933655 -0.141972 0.713889 -0.685690 0.396627 -0.533657
0.078533 -1.040171 -8.933655 0.278542 0.672475 -0.685690 0.613292 -0.562110
0.112764 -1.058468 -8.933655 0.404370 0.605213 -0.685690 0.678124 -0.608315
0.142769 -1.083092 -8.933655 0.514695 0.514664 -0.685690 0.734951 -0.670496
0.167392 -1.113096 -8.933655 0.605213 0.404370 -0.685690 0.781587 -0.746265
0.185690 -1.147328 -8.933655 0.672475 0.278542 -0.685690 0.816240 -0.832708
0.196957 -1.184471 -8.933655 0.713889 0.142003 -0.685690 0.837580 -0.926505
0.200761 -1.223099 -8.933655 0.727866 0.000000 -0.685690 0.844786 -1.024050
0.196957 -1.261727 -8.933655 0.713889 -0.142003 -0.685690 0.837580 -1.121595
0.185690 -1.298871 -8.933655 0.672475 -0.278542 -0.685690 0.816240 -1.215391
0.167392 -1.333102 -8.933655 0.605213 -0.404370 -0.685690 0.781587 -1.301835
0.142769 -1.363106 -8.933655 0.514695 -0.514664 -0.685690 0.734951 -1.377603
0.112764 -1.387730 -8.933655 0.404370 -0.605213 -0.685690 0.678124 -1.439785
0.078533 -1.406027 -8.933655 0.278542 -0.672475 -0.685690 0.613292 -1.485990
0.041389 -1.417295 -8.933655 0.142003 -0.713889 -0.685690 0.542944 -1.514442
0.002761 -1.421099 -8.933655 0.000000 -0.727866 -0.685690 0.469785 -1.524050
-0.035867 -1.417295 -8.933655 -0.142003 -0.713889 -0.685690 0.396627 -1.514442
-0.073010 -1.406027 -8.933655 -0.278542 -0.672475 -0.685690 0.326279 -1.485989
-0.107242 -1.387730 -8.933655 -0.404370 -0.605213 -0.685690 0.261447 -1.439784
-0.137246 -1.363106 -8.933655 -0.514664 -0.514664 -0.685690 0.204620 -1.377603
-0.161870 -1.333102 -8.933655 -0.605213 -0.404370 -0.685690 0.157984 -1.301835
-0.180167 -1.298870 -8.933655 -0.672475 -0.278542 -0.685690 0.123331 -1.215391
-0.191434 -1.261727 -8.933655 -0.713889 -0.142003 -0.685690 0.101991 -1.121594
-0.195239 -1.223099 -8.933655 -0.727866 0.000000 -0.685690 0.094786 -1.024049
-0.191434 -1.184471 -8.933655 -0.713889 0.142003 -0.685690 0.101991 -0.926504
-0.180167 -1.147328 -8.933655 -0.672475 0.278542 -0.685690 0.123331 -0.832708
-0.161869 -1.113096 -8.933655 -0.605213 0.404370 -0.685690 0.157985 -0.746264
-0.137246 -1.083092 -8.933655 -0.514664 0.514695 -0.685690 0.204621 -0.670496
-0.107241 -1.058468 -8.933655 -0.404370 0.605213 -0.685690 0.261447 -0.608315
-0.073010 -1.040171 -8.933655 -0.278542 0.672475 -0.685690 0.326280 -0.562110
4 0 1 2 3
4 3 2 4 5
4 5 4 6 7
4 7 6 8 9
4 10 11 12 13
4 13 12 14 15
4 15 14 16 17
4 18 19 20 21
4 21 20 22 23
4 23 22 24 25
4 25 24 26 27
4 27 26 28 29
4 30 31 32 33
4 33 32 34 35
4 35 34 36 37
4 37 36 38 39
4 39 38 40 41
4 41 40 42 43
4 43 42 44 45
4 45 44 46 47
4 48 49 50 51
4 51 50 52 53
4 53 52 54 55
4 55 54 56 57
4 57 56 58 59
4 59 58 60 61
4 62 63 64 65
4 65 64 66 67
4 68 69 70 71
4 71 70 72 73
3 74 75 76
3 75 77 78
3 78 79 80
3 80 81 82
3 82 83 84
3 84 85 86
3 86 87 88
3 88 89 90
3 90 91 92
3 92 93 94
3 94 95 96
3 96 97 98
3 98 99 100
3 100 101 102
3 102 103 104
3 104 105 76
3 75 78 76
3 78 80 82
3 82 84 86
3 86 88 90
3 90 92 94
3 94 96 98
3 98 100 102
3 102 104 76
3 78 82 76
3 82 86 90
3 90 94 98
3 98 102 76
3 82 90 76
3 90 98 76
4 1 0 106 107
4 73 72 107 106
3 108 109 110
3 109 111 112
3 112 113 114
3 114 115 116
3 116 117 118
3 118 119 120
3 120 121 122
3 122 123 124
3 124 125 126
3 126 127 128
3 128 129 130
3 130 131 132
3 132 133 134
3 134 135 136
3 136 137 138
3 138 139 110
3 109 112 110
3 112 114 116
3 116 118 120
3 120 122 124
3 124 126 128
3 128 130 132
3 132 134 136
3 136 138 110
3 112 116 110
3 116 120 124
3 124 128 132
3 132 136 110
3 116 124 110
3 124 132 110
